<svg xmlns="http://www.w3.org/2000/svg" viewBox="0 0 400 350">
  <g fill="none" stroke="#334155" stroke-width="2.5" stroke-linecap="round" stroke-linejoin="round">
    <!-- Silhueta Frontal -->
    <path d="M100 280 C60 280 50 260 50 240 L50 160 C50 120 80 80 200 80 C320 80 350 120 350 160 L350 240 C350 260 340 280 300 280 Z" />
    
    <!-- Para-brisa -->
    <path d="M80 155 C80 110 120 100 200 100 C280 100 320 110 320 155 L310 180 L90 180 Z" fill="#F1F5F9" opacity="0.5" />
    
    <!-- Capô -->
    <path d="M90 180 C120 190 280 190 310 180" />
    
    <!-- Faróis -->
    <rect x="70" y="200" width="60" height="30" rx="10" stroke-width="2" />
    <rect x="270" y="200" width="60" height="30" rx="10" stroke-width="2" />
    
    <!-- Grade -->
    <rect x="150" y="210" width="100" height="40" rx="5" opacity="0.4" />
    <path d="M160 220 L240 220 M160 230 L240 230 M160 240 L240 240" stroke-width="1" />
    
    <!-- Rodas (Vistas de frente) -->
    <rect x="60" y="270" width="40" height="20" rx="5" fill="#334155" />
    <rect x="300" y="270" width="40" height="20" rx="5" fill="#334155" />
    
    <!-- Espelhos -->
    <path d="M50 150 L20 145 C15 145 10 150 10 155 L10 165 C10 170 15 175 20 175 L50 170" />
    <path d="M350 150 L380 145 C385 145 390 150 390 155 L390 165 C390 170 385 175 380 175 L350 170" />
  </g>
</svg>
